<svg width="75" height="27" viewBox="0 0 75 27" fill="none" xmlns="http://www.w3.org/2000/svg">
<path d="M8.77636 26.6918C6.5872 26.6049 4.79614 26.0058 3.39569 24.8933C3.12841 24.6807 2.49153 24.0435 2.27787 23.7747C1.70996 23.0606 1.32386 22.3656 1.06634 21.5946C0.273891 19.221 0.681734 16.1063 2.23288 12.688C3.561 9.7615 5.61033 6.859 9.1857 2.83906C9.71237 2.24753 11.2808 0.517578 11.2909 0.517578C11.2946 0.517578 11.2092 0.665645 11.1016 0.845952C10.1719 2.4031 9.3765 4.23726 8.94317 5.82515C8.24706 8.37304 8.33103 10.5596 9.18907 12.255C9.78097 13.4231 10.7957 14.4348 11.9368 14.9941C13.9344 15.9729 16.859 16.0538 20.4306 15.231C20.6765 15.174 32.8616 11.9394 47.5086 8.04279C62.1557 4.14579 74.1417 0.959907 74.1436 0.96253C74.1477 0.965909 40.1143 15.529 22.4469 23.0842C19.649 24.2804 18.9008 24.5825 17.5855 25.0443C14.223 26.2251 11.211 26.7886 8.77636 26.6918Z" fill="white"/>
</svg>
