<svg width="417" height="95" viewBox="0 0 417 95" fill="none" xmlns="http://www.w3.org/2000/svg">
<path d="M352.258 2.00977H271.394L242.047 92.1247H267.726L289.736 24.4986H342.21L295.797 55.9193L324.506 90.2108C328.174 94.6767 334.714 95.4741 339.499 92.2842C345.081 88.6158 346.197 80.8006 341.891 75.6967L329.291 60.7041L363.423 37.7368C379.053 26.8911 371.398 2.00977 352.258 2.00977Z" fill="white"/>
<path d="M29.4409 2.00977L0.09375 92.1247H25.7725L47.7829 24.4986H100.257L64.5299 48.742C59.4261 52.2509 57.6716 59.2687 61.021 64.532C64.5299 69.7954 71.5477 71.2308 76.8111 67.7219L121.31 37.7368C137.26 27.0506 129.604 2.16926 110.465 2.16926L29.4409 2.00977Z" fill="white"/>
<path d="M226.743 2.00977H146.357L139.02 24.4986H195.322L122.911 73.4638C117.329 77.1322 116.212 84.9474 120.519 90.0513C124.187 94.5172 130.726 95.3146 135.511 92.1247L208.56 42.8406L192.451 92.1247H218.13L241.097 21.6277C244.128 12.058 236.95 2.00977 226.743 2.00977Z" fill="#00C7B1"/>
<path d="M404.25 0.253906C398.986 0.253906 394.201 3.60331 392.606 8.70717L365.492 92.2828H391.171L415.893 16.2035C418.445 8.22868 412.543 0.253906 404.25 0.253906Z" fill="white"/>
</svg>
