<svg width="73" height="18" viewBox="0 0 73 18" fill="none" xmlns="http://www.w3.org/2000/svg">
<path d="M36.3174 8.43082C35.1145 9.24185 33.9322 10.0369 32.7521 10.8343C29.7654 12.8505 26.7833 14.8689 23.792 16.8806C22.6917 17.621 21.3362 17.2701 20.8145 16.1288C20.3953 15.2129 20.6983 14.2333 21.6027 13.6205C24.4641 11.6841 27.33 9.75216 30.1937 7.81799C31.4398 6.97507 32.6883 6.13442 34.0324 5.22543C33.7886 5.21404 33.652 5.20265 33.5153 5.20265C30.6174 5.20265 27.7173 5.20265 24.8195 5.20265C24.3046 5.20265 24.3023 5.20265 24.4664 4.70145C24.8013 3.67628 25.1453 2.65338 25.4665 1.62364C25.5462 1.36849 25.6442 1.26369 25.9312 1.26369C30.4329 1.27053 34.9346 1.25686 39.4362 1.26369C41.457 1.26825 42.6393 2.91537 42.0197 4.83814C40.7553 8.75432 39.4795 12.6659 38.222 16.5821C38.1263 16.8806 37.9873 16.9671 37.6843 16.9649C36.4701 16.9466 35.2535 16.9489 34.037 16.9649C33.7112 16.9694 33.6223 16.9125 33.7362 16.5639C34.5769 14.0237 35.3993 11.4767 36.2195 8.92974C36.2673 8.78394 36.3539 8.63814 36.3151 8.43538" fill="white"/>
<path d="M59.5862 5.22509C59.3789 5.2137 59.2764 5.20231 59.1738 5.20231C56.4218 5.20231 53.6721 5.20686 50.92 5.19547C50.6307 5.19547 50.51 5.2866 50.4234 5.55998C49.2387 9.23467 48.0381 12.9048 46.8558 16.5818C46.7601 16.8825 46.6257 16.9691 46.3249 16.9645C45.0833 16.9486 43.8417 16.9508 42.5979 16.9645C42.3108 16.9668 42.2652 16.8871 42.3518 16.6251C43.9898 11.5994 45.6233 6.57149 47.2499 1.54356C47.3205 1.32713 47.4253 1.25879 47.6486 1.25879C52.2573 1.2679 56.8638 1.25879 61.4725 1.28157C63.049 1.28841 64.2656 2.24068 64.6847 3.69416C65.1085 5.16358 64.5936 6.58971 63.2951 7.47364C61.4429 8.73575 59.5839 9.98874 57.7204 11.2349C57.4652 11.4058 57.4219 11.5128 57.6406 11.7634C58.3172 12.5357 58.987 13.3194 59.6204 14.1282C60.4246 15.1488 60.0578 16.6 58.8936 17.1285C58.0985 17.4885 57.1713 17.3017 56.5995 16.6228C54.9797 14.7046 53.3759 12.7727 51.7538 10.8567C51.5465 10.613 51.7105 10.5537 51.8677 10.4467C54.3008 8.8041 56.7339 7.16381 59.167 5.52125C59.2764 5.44607 59.3857 5.36861 59.5862 5.22964" fill="white"/>
<path d="M17.3525 5.20041H16.956C14.2724 5.20041 11.5864 5.20952 8.90271 5.18902C8.51542 5.18674 8.38101 5.32115 8.27166 5.6606C7.10295 9.29884 5.91603 12.9302 4.74732 16.5685C4.65392 16.8578 4.53773 16.9672 4.2279 16.9626C2.99997 16.9444 1.76975 16.9489 0.541818 16.9603C0.25249 16.9626 0.138581 16.9307 0.247933 16.5958C1.88822 11.5861 3.51483 6.56959 5.13689 1.55533C5.21207 1.32296 5.33054 1.25461 5.56519 1.25689C10.1466 1.266 14.7257 1.25689 19.3071 1.27512C20.9155 1.28195 22.1161 2.1955 22.5649 3.67859C23.0092 5.14801 22.4875 6.59009 21.1638 7.48769C18.6351 9.20316 16.1017 10.9095 13.5661 12.6136C12.5706 13.2834 11.3745 13.0715 10.7458 12.1374C10.1398 11.2376 10.3949 10.0301 11.3654 9.36491C13.2267 8.09141 15.0993 6.83841 16.9674 5.5763C17.1064 5.4829 17.2431 5.38494 17.3798 5.28926C17.3684 5.25964 17.3593 5.2323 17.3479 5.20268" fill="white"/>
<path d="M65.981 16.9561C65.3659 16.9561 64.7508 16.9425 64.1379 16.963C63.8144 16.9744 63.7324 16.9083 63.8441 16.5734C64.687 14.0196 65.5139 11.4589 66.3455 8.90279C67.0494 6.73853 67.7443 4.56971 68.4619 2.40773C68.749 1.54202 69.3686 1.03854 70.2867 0.956531C71.1843 0.874517 71.8746 1.24358 72.328 2.01816C72.6378 2.55125 72.6947 3.12307 72.5034 3.7154C71.1023 8.03481 69.7012 12.3519 68.3047 16.6736C68.2364 16.8855 68.1338 16.9675 67.9083 16.963C67.2681 16.9493 66.6257 16.9584 65.9855 16.9584" fill="white"/>
</svg>
