<svg width="99" height="23" viewBox="0 0 99 23" fill="none" xmlns="http://www.w3.org/2000/svg">
<path d="M70.369 9.76025H66.2344V17.8755C66.2344 20.5206 69.0593 22.7806 72.5519 22.7806C76.0446 22.7806 79.1006 20.495 79.1006 17.8755V9.76025H74.9659V17.0794C74.9659 18.2864 73.9387 19.2623 72.6803 19.2623C71.3963 19.2623 70.369 18.2864 70.369 17.0537V9.76025Z" fill="white"/>
<path d="M4.78093 5.29263V22.1394H0.492188V1.82568H8.2222C11.5864 1.82568 14.3343 4.54788 14.3343 7.86074C14.3343 10.6857 12.3569 13.0483 9.68602 13.6647L15.644 22.1394H10.5335L6.24475 15.488V10.6343H7.24631C8.83854 10.6343 10.1226 9.45297 10.1226 7.98914C10.1226 6.52532 8.91559 5.29263 7.32336 5.29263H4.78093Z" fill="white"/>
<path d="M44.2535 22.1392V0.849609H40.1959V10.8909C39.1173 9.83799 37.7562 9.24732 36.1896 9.24732C32.8511 9.24732 30.1289 12.2007 30.1289 15.873C30.1289 19.5198 32.8511 22.4988 36.1896 22.4988C37.7819 22.4988 39.2714 21.8824 40.1959 20.7525V22.1392H44.2535ZM37.3453 19.0318C35.7017 19.0318 34.3663 17.568 34.3663 15.7703C34.3663 13.9726 35.7017 12.5088 37.3453 12.5088C38.9889 12.5088 40.3243 13.9726 40.3243 15.7703C40.2986 17.568 38.9632 19.0318 37.3453 19.0318Z" fill="white"/>
<path d="M61.3065 11.0966C62.4108 10.0693 63.1042 8.68253 63.1042 7.16735C63.1042 5.78057 62.5649 4.5222 61.6403 3.52064C60.6645 2.46771 58.9695 1.82568 56.6582 1.82568H49.75V22.1394H58.687C62.1026 22.0881 64.8762 19.4943 64.8762 16.3098C64.8505 13.9985 64.0287 12.3549 61.3065 11.0966ZM57.8652 18.6211H53.9874V5.4724H56.7096C57.8909 5.4724 58.8925 6.37124 58.8925 7.57825C58.8925 8.78526 57.8909 9.76114 56.7096 9.76114H55.2714V13.4335H57.9166C59.3547 13.4335 60.4333 14.6149 60.4333 16.053C60.382 17.4911 59.4318 18.5441 57.8652 18.6211Z" fill="white"/>
<path d="M19.2374 14.3575C19.2374 12.9964 20.3417 11.8921 21.7028 11.8921C23.0639 11.8921 24.1681 12.9964 24.1681 14.3575H19.2374ZM28.1744 16.6688C28.2001 16.3863 28.2258 16.1038 28.2258 15.8213C28.2771 11.4298 25.4008 9.0415 21.7028 9.0415C18.0047 9.0415 15 12.0719 15 15.8213C15 19.5708 18.0047 22.6011 21.7028 22.6011C24.5277 22.6011 26.7363 21.3171 27.8662 19.3139L24.579 17.7988C24.1681 18.6976 23.1923 19.3396 22.0366 19.3396C20.5214 19.3396 19.2631 18.184 19.2631 16.6688C19.3658 16.6688 28.1744 16.6688 28.1744 16.6688Z" fill="white"/>
<path d="M85.0615 0.849609H81.0039V22.1392H85.0615V0.849609Z" fill="white"/>
<path d="M91.9678 0.849609H87.9102V22.1392H91.9678V0.849609Z" fill="white"/>
<path d="M96.2073 0.720969C96.6696 0.720969 97.0548 0.875055 97.363 1.20891C97.6712 1.51708 97.8509 1.92798 97.8509 2.36456C97.8509 2.82682 97.6968 3.21203 97.363 3.52021C97.0548 3.85406 96.6439 4.00815 96.2073 4.00815C95.7451 4.00815 95.3599 3.85406 95.026 3.52021C94.7178 3.21203 94.5381 2.80114 94.5381 2.36456C94.5381 1.9023 94.6921 1.51708 95.026 1.20891C95.3599 0.900736 95.7451 0.720969 96.2073 0.720969ZM98.1334 2.36456C98.1334 1.85094 97.9536 1.38868 97.5684 1.00346C97.1832 0.643925 96.7466 0.438477 96.2073 0.438477C95.668 0.438477 95.2314 0.618244 94.8462 1.00346C94.461 1.38868 94.2812 1.82526 94.2812 2.36456C94.2812 2.90386 94.461 3.34044 94.8462 3.72566C95.2314 4.11087 95.668 4.29064 96.2073 4.29064C96.7466 4.29064 97.1832 4.11087 97.5684 3.72566C97.928 3.36612 98.1334 2.90386 98.1334 2.36456ZM96.721 1.95366C96.721 2.10775 96.6439 2.23615 96.4898 2.28751C96.4128 2.3132 96.2844 2.33888 96.1303 2.33888H95.7964V1.56844H96.1046C96.31 1.56844 96.4641 1.59413 96.5669 1.64549C96.6696 1.72253 96.721 1.79957 96.721 1.95366ZM95.4369 1.31163V3.41748H95.7964V2.59569H96.0789C96.2844 2.59569 96.4128 2.62137 96.4898 2.67273C96.6182 2.74977 96.6953 2.90386 96.6953 3.16067V3.31476V3.36612V3.3918V3.41748H97.0548L97.0291 3.3918C97.0291 3.36612 97.0034 3.34044 97.0034 3.28908C97.0034 3.23772 97.0034 3.18635 97.0034 3.13499V2.9809C97.0034 2.87818 96.9521 2.77546 96.9007 2.64705C96.8237 2.54433 96.6953 2.46728 96.5412 2.4416C96.6696 2.41592 96.7723 2.39024 96.8494 2.33888C96.9778 2.26183 97.0548 2.10775 97.0548 1.92798C97.0548 1.67117 96.9521 1.4914 96.721 1.38868C96.5925 1.33731 96.4128 1.31163 96.1303 1.31163H95.4369Z" fill="white"/>
</svg>
