<svg xmlns="http://www.w3.org/2000/svg" width="47" height="52" fill="none"><path fill="#fff" d="m46.197 13.36-5.144-1.644v10.017h5.134zm-8.248-5.954-5.127-1.644v15.97h5.127c.007-5.08-.004-10.009 0-14.326M5.143 43.27V11.918L.2 13.497c.011 9.877.026 23.122 0 33.938zm26.633-18.21L.2 51.668h13.206l22.035-18.623v12.15H25.124l7.698 6.473h13.38V25.061zM8.247 40.65l5.082-4.28V5.959L8.232 7.632c.012 9.654.041 22.35.015 33.017m8.187-6.895 5.1-4.296V0l-5.117 1.65c.01 9.374.037 21.515.018 32.104M29.717 1.705 24.639 0v26.84l5.078-4.279z"/></svg>