<svg width="47" height="48" fill="none" xmlns="http://www.w3.org/2000/svg"><g clip-path="url(#a)"><mask id="b" style="mask-type:luminance" maskUnits="userSpaceOnUse" x="0" y="0" width="47" height="48"><path d="M46.635.027H.537V47.34h46.098V.027Z" fill="#fff"/></mask><g mask="url(#b)" fill="#fff"><path fill-rule="evenodd" clip-rule="evenodd" d="m46.619 20.495.011-7.814-5.157-1.534v9.348h5.146Zm-8.258-.005c.006-4.742.014-9.34.02-13.37l-5.158-1.534V20.49h5.138ZM.552 44.183l5.143-3.988V11.146L.536 12.681c.011 9.217.041 21.41.015 31.503"/><path d="M13.77 47.338H.54l31.64-24.826h14.455v24.826H32.226l-6.638-6.042h10.264V29.96L13.77 47.338Z"/><path fill-rule="evenodd" clip-rule="evenodd" d="m8.6 37.934 5.14-3.987V5.585L8.584 7.12c.01 9.01.04 20.859.016 30.814Zm8.204-6.358 5.137-3.985V.027L16.784 1.62c.01 8.747.035 20.076.02 29.957Zm13.352-10.014c.004-6.998.018-14.056.025-19.943L25.023.027v25.517l5.133-3.982Z"/></g></g><defs><clipPath id="a"><path fill="#fff" transform="translate(.537 .023)" d="M0 0h46.098v47.312H0z"/></clipPath></defs></svg>