<svg xmlns="http://www.w3.org/2000/svg" width="47" height="48" fill="none"><g clip-path="url(#a)"><mask id="b" width="47" height="48" x="0" y="0" maskUnits="userSpaceOnUse" style="mask-type:luminance"><path fill="#fff" d="M46.635.027H.537V47.34h46.098z"/></mask><g fill="#fff" mask="url(#b)"><path fill-rule="evenodd" d="m46.619 20.495.011-7.814-5.157-1.534v9.348zm-8.258-.005c.006-4.742.014-9.34.02-13.37l-5.158-1.534V20.49zM.552 44.183l5.143-3.988V11.147L.536 12.68c.011 9.218.041 21.41.015 31.503" clip-rule="evenodd"/><path d="M13.77 47.338H.54l31.64-24.826h14.455v24.826H32.226l-6.638-6.042h10.264V29.96z"/><path fill-rule="evenodd" d="m8.6 37.934 5.14-3.987V5.586L8.584 7.12c.01 9.01.04 20.859.016 30.814m8.204-6.358 5.137-3.985V.027L16.784 1.62c.01 8.747.035 20.076.02 29.957m13.352-10.015c.004-6.998.018-14.056.025-19.943L25.023.027v25.517z" clip-rule="evenodd"/></g></g><defs><clipPath id="a"><path fill="#fff" d="M.537.023h46.098v47.312H.537z"/></clipPath></defs></svg>