<svg xmlns="http://www.w3.org/2000/svg" width="47" height="48" fill="none"><g clip-path="url(#a)"><mask id="b" width="47" height="48" x="0" y="0" maskUnits="userSpaceOnUse" style="mask-type:luminance"><path fill="#fff" d="M46.463.027H.365V47.34h46.098z"/></mask><g fill="#000" mask="url(#b)"><path fill-rule="evenodd" d="m46.447 20.495.011-7.814-5.157-1.534v9.348zm-8.257-.005c.005-4.742.014-9.34.019-13.37L33.05 5.586V20.49zM.38 44.183l5.143-3.988V11.147L.365 12.68c.011 9.218.041 21.41.016 31.503" clip-rule="evenodd"/><path d="M13.598 47.338H.368l31.64-24.826h14.455v24.826H32.054l-6.638-6.042H35.68V29.96z"/><path fill-rule="evenodd" d="m8.428 37.934 5.14-3.987V5.586L8.413 7.12c.01 9.01.04 20.859.016 30.814m8.203-6.358 5.137-3.985V.027L16.612 1.62c.01 8.747.036 20.076.02 29.957m13.352-10.015c.004-6.998.018-14.056.025-19.943L24.852.027v25.517z" clip-rule="evenodd"/></g></g><defs><clipPath id="a"><path fill="#fff" d="M.365.023h46.098v47.312H.365z"/></clipPath></defs></svg>