<svg width="13" height="16" fill="none" xmlns="http://www.w3.org/2000/svg"><path d="M4.976.975c.24-.083.5-.014.72.094.153.099.306.199.477.263l.053.098-.026.066c.122.277.2.607.082.899-.081.098-.222.113-.335.152-.001.14.022.28.034.42.243.04.449-.13.69-.113.032-.135.058-.272.1-.404.05.088.052.188.053.287.063.018.127.034.191.05l.001.096c1.055.006 2.11-.005 3.164.006l-.01.145h.11v-.576l.105-.003.003.453.092.113.07-.081c.08.075.034.177.03.27.296-.004.594.016.888-.008l.088-.064.122.048c.132-.004.265-.004.399-.005l-.008.206c-.171-.002-.343-.006-.512.023-.109-.093-.255-.064-.387-.067-.202.01-.41-.026-.607.038a.428.428 0 0 1-.347-.041c-.025.06.013.198-.09.193-.407.005-.813-.004-1.22.003a5.21 5.21 0 0 1-.167.084c-.058.175-.227.292-.37.399-.018.269.089.52.13.78-.08.024-.16.048-.24.074-.114.268-.044.635-.307.822-.202.117-.335.372-.608.332.139.115-.037.08-.019-.013-.492-.044-.907-.332-1.335-.552a3.48 3.48 0 0 1-.083.357c.162.03.296.15.325.317.052.363-.052.724-.05 1.088.011.214-.08.41-.195.584-.1.114-.258-.003-.378-.02a8.886 8.886 0 0 0-.08.16c.034.142.049.29.097.43.267.296.511.617.698.971.193.4.365.811.515 1.23.014.081.09.11.158.14l.026.252.08.116c.017.517-.047 1.031-.127 1.541-.05.23.085.455.03.687.007.119-.075.208-.113.313-.008.245-.02.493.007.737.019.18.17.295.273.428.112.12.206.28.376.322.16.047.312.117.453.207.043.107.035.22.015.33-.307.057-.62.028-.931.033-.24.013-.452-.116-.685-.143-.225-.005-.499.106-.672-.095.074-.28.08-.58.214-.84.043-.295-.04-.594-.022-.892l-.103-.086c.019-.194-.077-.367-.11-.554-.02-.271-.045-.543-.076-.813-.025-.132.043-.252.136-.34.008-.152.029-.302.044-.453-.023-.098-.101-.171-.151-.255-.169.07-.396.037-.496-.127a130.39 130.39 0 0 0-.714-1.058c-.095-.006-.194.003-.282-.034-.102-.105-.155-.244-.22-.37-.093.104-.086.264-.196.359-.233.223-.294.551-.416.837-.093.186-.04.41-.145.59-.055.098-.195.117-.231.229-.049.12-.105.244-.218.317-.122.08-.155.232-.209.358-.05.116.024.237.007.356-.078.378-.318.694-.42 1.065-.046.166-.112.354-.306.39-.22.394-.342.876-.217 1.32.076.14.072.296.048.45-.35.027-.71.074-1.054-.024-.08-.16-.07-.348-.053-.52.107-.456.248-.902.334-1.361-.108-.096-.082-.243-.08-.371-.004-.24.159-.432.272-.628.043-.202.023-.42.127-.604.123-.232.226-.482.416-.67.036-.165.158-.29.207-.448.052-.141-.04-.284-.021-.427.045-.436.124-.867.193-1.3-.13-.108-.088-.28-.13-.427a.996.996 0 0 1 .077-.166l-.097-.09c.032-.154.023-.43.259-.38.014-.508-.162-1-.103-1.51l.094.11-.017-.172c.099-.052.204-.093.314-.113-.18-.024-.354-.07-.53-.11-.042-.112-.019-.23-.003-.345.068-.386.093-.777.107-1.168.199-.07.418-.01.612-.103-.06-.489-.075-1 .099-1.469.14-.399.407-.784.824-.925.197-.047.445-.1.585.091l.114-.106c-.318-.632.062-1.555.784-1.685Zm2.546 2.74c-.084.052-.166.11-.078.204a3.34 3.34 0 0 1-.13.074c-.067.052-.22.082-.203.188.077.123.143.252.197.386.168-.137.3-.322.39-.517l.077-.077a.87.87 0 0 0-.064-.26l-.189.003Z" fill="#000"/></svg>