<svg width="13" height="16" viewBox="0 0 13 16" fill="none" xmlns="http://www.w3.org/2000/svg">
<path d="M4.97626 0.975061C5.21529 0.892237 5.4764 0.961379 5.69546 1.06942C5.84853 1.16797 6.00159 1.26757 6.17301 1.33204C6.18611 1.35668 6.21337 1.40543 6.22647 1.42954C6.21966 1.44579 6.20656 1.47934 6.19974 1.49559C6.32188 1.77342 6.39998 2.10262 6.28152 2.39454C6.20079 2.49309 6.0603 2.50835 5.94655 2.54651C5.94603 2.68752 5.96857 2.82701 5.98063 2.96697C6.22386 3.00629 6.42976 2.83697 6.67037 2.85374C6.70287 2.71902 6.72855 2.5821 6.77164 2.45006C6.82144 2.5376 6.82349 2.6383 6.82406 2.73685C6.88697 2.75467 6.95092 2.77092 7.01529 2.78659C7.01592 2.81076 7.01639 2.85899 7.01639 2.8831C8.07108 2.88939 9.1252 2.87833 10.1799 2.88887C10.1773 2.92493 10.1722 2.99732 10.1701 3.03354C10.1973 3.03354 10.2529 3.03407 10.2806 3.03407C10.2795 2.84226 10.2806 2.64983 10.2801 2.45802C10.3068 2.45692 10.3592 2.45535 10.3854 2.45483C10.3861 2.6058 10.3865 2.75677 10.3881 2.90779C10.4111 2.9361 10.4572 2.99266 10.4804 3.02096C10.4977 3.00047 10.5323 2.96021 10.5495 2.93971C10.6297 3.01473 10.5841 3.11747 10.5805 3.20962C10.8757 3.20643 11.1738 3.22635 11.468 3.20223C11.49 3.18598 11.5341 3.15401 11.5561 3.13781C11.5965 3.15348 11.6373 3.16926 11.6777 3.18551C11.8103 3.18226 11.9435 3.18184 12.0766 3.18132C12.0739 3.24999 12.0718 3.31861 12.0692 3.38733C11.8977 3.38465 11.7258 3.38104 11.557 3.41034C11.448 3.31656 11.3017 3.34634 11.1702 3.34277C10.9678 3.35221 10.7591 3.31656 10.5631 3.38099C10.4467 3.41349 10.3189 3.40567 10.2161 3.33957C10.1914 3.4009 10.2292 3.53825 10.1258 3.53295C9.71907 3.53825 9.31281 3.52933 8.90656 3.53562C8.85099 3.56498 8.7949 3.59276 8.73944 3.61997C8.68073 3.79505 8.51246 3.9119 8.36925 4.01883C8.35143 4.28775 8.45784 4.53884 8.49925 4.79984C8.41905 4.82285 8.33832 4.84654 8.25917 4.87276C8.14542 5.14115 8.21514 5.50751 7.95199 5.69475C7.75017 5.81212 7.6166 6.06741 7.34444 6.0271C7.48283 6.14242 7.30669 6.10625 7.32504 6.01399C6.83282 5.97048 6.41817 5.68165 5.99043 5.46154C5.97051 5.58205 5.93911 5.70057 5.90655 5.81852C6.06906 5.84945 6.20325 5.96896 6.23208 6.13566C6.28398 6.49898 6.18019 6.85969 6.18176 7.22395C6.19329 7.43783 6.10156 7.63382 5.98728 7.80838C5.88716 7.92161 5.72938 7.80519 5.60933 7.78847C5.58202 7.84141 5.55534 7.89441 5.52913 7.94782C5.5632 8.09035 5.57788 8.2387 5.62558 8.37814C5.89345 8.67431 6.1372 8.99517 6.32434 9.34901C6.51698 9.74972 6.68864 10.1602 6.83864 10.5787C6.85326 10.66 6.92979 10.6892 6.997 10.7187C7.00591 10.8026 7.01482 10.8863 7.02321 10.9713C7.04942 11.0096 7.07615 11.0478 7.10341 11.0866C7.11966 11.6035 7.05623 12.1182 6.97593 12.6283C6.92623 12.8584 7.06085 13.0833 7.00633 13.315C7.01262 13.4336 6.93095 13.5232 6.89258 13.628C6.88524 13.8728 6.87318 14.1207 6.90002 14.3651C6.91879 14.5444 7.07039 14.6596 7.17313 14.7934C7.28531 14.9124 7.37914 15.0722 7.54898 15.1146C7.70886 15.1623 7.8614 15.2315 8.00231 15.3223C8.04529 15.4286 8.03743 15.5414 8.01699 15.6519C7.70981 15.7086 7.39633 15.6803 7.08601 15.6851C6.84687 15.6976 6.63362 15.5692 6.4013 15.5424C6.17641 15.5367 5.90226 15.6483 5.72938 15.447C5.80266 15.1677 5.80853 14.8678 5.94262 14.6072C5.9856 14.3121 5.90394 14.0128 5.92113 13.715C5.89555 13.6935 5.84407 13.6505 5.81839 13.629C5.83684 13.4345 5.74086 13.2615 5.70883 13.0754C5.68796 12.8038 5.66322 12.5323 5.63177 12.2618C5.60713 12.1303 5.67528 12.0097 5.76806 11.9222C5.77645 11.7702 5.797 11.6197 5.81157 11.4688C5.78903 11.3707 5.71092 11.2979 5.6606 11.214C5.49233 11.2849 5.26535 11.2513 5.16523 11.0866C4.92782 10.7333 4.69083 10.38 4.45074 10.0287C4.35639 10.0225 4.25679 10.0324 4.16873 9.99467C4.06714 9.8904 4.01409 9.75149 3.94919 9.62463C3.85635 9.72895 3.86312 9.88878 3.75314 9.98371C3.52039 10.2071 3.45854 10.5352 3.33692 10.8214C3.24372 11.0069 3.29614 11.2307 3.19224 11.4116C3.13668 11.5091 2.99724 11.5285 2.96055 11.6397C2.91232 11.7597 2.85571 11.8839 2.74301 11.9569C2.62087 12.037 2.58842 12.1891 2.53395 12.3148C2.48415 12.4307 2.55807 12.5523 2.54077 12.6713C2.46319 13.0493 2.22258 13.3654 2.12141 13.7355C2.07528 13.9022 2.00918 14.0899 1.81522 14.1255C1.59453 14.5197 1.47297 15.002 1.59773 15.4458C1.67426 15.5853 1.67007 15.742 1.64648 15.8956C1.29584 15.9229 0.93619 15.97 0.591842 15.8721C0.511115 15.7121 0.522647 15.5239 0.539422 15.3511C0.645782 14.8965 0.786846 14.45 0.873287 13.9908C0.765301 13.8948 0.790515 13.7481 0.792559 13.6196C0.788942 13.3801 0.951914 13.1882 1.06514 12.9916C1.10765 12.7898 1.08774 12.5729 1.192 12.3877C1.31472 12.1561 1.41845 11.9055 1.60774 11.7183C1.64386 11.5532 1.76558 11.4285 1.81475 11.2695C1.86717 11.129 1.77543 10.9865 1.79389 10.8429C1.83892 10.4072 1.91812 9.9758 1.98679 9.54333C1.85684 9.43482 1.89873 9.26241 1.85731 9.11611C1.87776 9.05844 1.90344 9.00346 1.93437 8.94994C1.90187 8.92006 1.86995 8.88965 1.8374 8.85983C1.86885 8.70608 1.85994 8.43087 2.09583 8.48083C2.1105 7.97183 1.93385 7.47908 1.99308 6.96951C2.02454 7.00615 2.05541 7.04342 2.08692 7.08064L2.07014 6.90817C2.16869 6.85575 2.27353 6.81539 2.38361 6.79495C2.20434 6.77141 2.02978 6.7258 1.85406 6.68486C1.8116 6.57316 1.8353 6.45422 1.85092 6.33994C1.91907 5.95413 1.94423 5.56308 1.95838 5.17202C2.15705 5.10293 2.37617 5.16159 2.57012 5.06928C2.50995 4.5802 2.49474 4.06968 2.66867 3.60047C2.80863 3.20097 3.07603 2.81569 3.49324 2.67525C3.69034 2.62813 3.93829 2.57513 4.07762 2.76646C4.11589 2.73134 4.15415 2.69517 4.19242 2.66005C3.87428 2.02818 4.25433 1.10506 4.97626 0.975061ZM7.52225 3.71558C7.43837 3.76695 7.35608 3.82572 7.44425 3.91902C7.40126 3.94466 7.35817 3.96935 7.31466 3.99288C7.24652 4.0453 7.09345 4.07513 7.11127 4.18112C7.18783 4.30406 7.25379 4.43329 7.30842 4.56741C7.47559 4.43012 7.60874 4.2455 7.6989 4.05007C7.71777 4.03068 7.75609 3.99189 7.77491 3.97297C7.76652 3.88333 7.7466 3.79573 7.71148 3.71296C7.64858 3.71406 7.58515 3.71506 7.52225 3.71558Z" fill="black"/>
</svg>
