<svg width="12" height="12" viewBox="0 0 12 12" fill="none" xmlns="http://www.w3.org/2000/svg">
<path d="M11.6153 0.145508H0.777344V11.0637H11.6153V0.145508Z" fill="black"/>
<path d="M2.04102 2.49496L3.12481 1.88281L10.3702 8.02432L9.64765 9.75036L7.37971 9.22853L2.04102 2.49496Z" fill="white"/>
<path d="M9.41387 1.39827C9.41387 1.39827 10.5862 2.43267 10.5871 2.41869C10.5862 2.43267 10.3103 3.93077 10.3113 3.91679C10.3103 3.93077 7.80168 1.71042 7.80262 1.69644C7.80168 1.71042 9.41387 1.39827 9.41387 1.39827Z" fill="white"/>
<path d="M1.82227 8.93831C1.82227 8.93831 2.15773 7.07607 2.15773 7.06055C2.15773 7.07607 4.71238 9.27972 4.71238 9.2642C4.71238 9.27972 2.77704 9.74528 2.77704 9.72976C2.77704 9.74528 1.82227 8.93831 1.82227 8.93831Z" fill="white"/>
</svg>
