<svg width="47" height="52" viewBox="0 0 47 52" fill="none" xmlns="http://www.w3.org/2000/svg">
<path d="M46.1974 13.3602L41.0527 11.7158V21.7326H46.1866C46.1898 18.7856 46.1936 15.9618 46.1974 13.3602Z" fill="white"/>
<path d="M37.9485 7.40611L32.8223 5.76172V21.7322H37.9485C37.9558 16.6524 37.9447 11.7233 37.9485 7.40611Z" fill="white"/>
<path d="M5.14267 43.2707V11.917L0.201172 13.4963C0.212279 23.374 0.227178 36.6194 0.201172 47.4345L5.14267 43.2707Z" fill="white"/>
<path d="M31.7757 25.0605L0.201172 51.6672H13.4068L35.4421 33.0437V45.1934H25.124L32.8217 51.6672H46.2012V25.0605H31.7757Z" fill="white"/>
<path d="M8.24705 40.6493L13.3291 36.3707V5.95801L8.23242 7.63173C8.24353 17.2863 8.27306 29.982 8.24705 40.6493Z" fill="white"/>
<path d="M16.4342 33.7539L21.5347 29.4576V0.000976562L16.416 1.65001C16.4269 11.0235 16.4526 23.1653 16.4342 33.7539Z" fill="white"/>
<path d="M29.717 1.7049L24.6387 0.000976562V26.8412L29.717 22.5623V1.7049Z" fill="white"/>
</svg>
