<svg width="47" height="52" viewBox="0 0 47 52" fill="none" xmlns="http://www.w3.org/2000/svg">
<path d="M46.3224 13.3602L41.1777 11.7158V21.7326H46.3116C46.3148 18.7856 46.3186 15.9618 46.3224 13.3602Z" fill="black"/>
<path d="M38.0735 7.40611L32.9473 5.76172V21.7322H38.0735C38.0808 16.6524 38.0697 11.7233 38.0735 7.40611Z" fill="black"/>
<path d="M5.26767 43.2707V11.917L0.326172 13.4963C0.337279 23.374 0.352178 36.6194 0.326172 47.4345L5.26767 43.2707Z" fill="black"/>
<path d="M31.9007 25.0605L0.326172 51.6672H13.5318L35.5671 33.0437V45.1934H25.249L32.9467 51.6672H46.3262V25.0605H31.9007Z" fill="black"/>
<path d="M8.37205 40.6493L13.4541 36.3707V5.95801L8.35742 7.63173C8.36853 17.2863 8.39806 29.982 8.37205 40.6493Z" fill="black"/>
<path d="M16.5592 33.7539L21.6597 29.4576V0.000976562L16.541 1.65001C16.5519 11.0235 16.5776 23.1653 16.5592 33.7539Z" fill="black"/>
<path d="M29.842 1.7049L24.7637 0.000976562V26.8412L29.842 22.5623V1.7049Z" fill="black"/>
</svg>
