<svg width="75" height="27" fill="none" xmlns="http://www.w3.org/2000/svg"><path d="M8.776 26.692c-2.189-.087-3.98-.686-5.38-1.799a10.75 10.75 0 0 1-1.118-1.118c-.568-.714-.954-1.41-1.212-2.18-.792-2.374-.384-5.489 1.167-8.907C3.56 9.761 5.61 6.859 9.186 2.839A214.78 214.78 0 0 1 11.29.518c.004 0-.082.148-.19.328-.93 1.557-1.725 3.391-2.158 4.98-.696 2.547-.612 4.734.246 6.429.592 1.168 1.607 2.18 2.748 2.74 1.997.978 4.922 1.059 8.494.236.245-.057 12.43-3.292 27.078-7.188C62.156 4.146 74.142.96 74.144.963c.004.003-34.03 14.566-51.697 22.121-2.798 1.196-3.546 1.498-4.861 1.96-3.363 1.181-6.375 1.745-8.81 1.648Z" fill="#fff"/></svg>