<svg xmlns="http://www.w3.org/2000/svg" width="73" height="18" fill="none"><path fill="#fff" d="M36.317 8.43c-1.203.812-2.385 1.607-3.565 2.404-2.987 2.017-5.969 4.035-8.96 6.047-1.1.74-2.456.39-2.978-.752-.419-.916-.116-1.896.789-2.509q4.293-2.902 8.59-5.802l3.84-2.593c-.244-.011-.381-.022-.518-.022H24.82c-.515 0-.518 0-.354-.502.335-1.025.68-2.048 1-3.077.08-.256.178-.36.465-.36 4.502.007 9.004-.007 13.505 0 2.021.004 3.203 1.651 2.584 3.574-1.265 3.916-2.54 7.828-3.798 11.744-.096.299-.235.385-.538.383q-1.821-.026-3.647 0c-.326.004-.415-.052-.3-.401a995 995 0 0 0 2.482-7.634c.048-.146.135-.292.096-.495m23.271-3.21c-.207-.011-.31-.023-.412-.023-2.752 0-5.502.005-8.254-.007-.29 0-.41.092-.497.365-1.184 3.675-2.385 7.345-3.567 11.022-.096.3-.23.387-.531.383a156 156 0 0 0-3.727 0c-.287.002-.333-.078-.246-.34A7268 7268 0 0 0 47.25 1.544c.07-.217.175-.285.399-.285 4.608.009 9.215 0 13.823.023 1.577.006 2.794.959 3.213 2.412.424 1.47-.091 2.896-1.39 3.78a771 771 0 0 1-5.575 3.76c-.255.172-.298.279-.08.53a56 56 0 0 1 1.98 2.364 1.946 1.946 0 0 1-.726 3 1.93 1.93 0 0 1-2.294-.505c-1.62-1.918-3.224-3.85-4.846-5.766-.207-.244-.043-.303.114-.41l7.299-4.926.42-.291M17.353 5.2h-.397c-2.684 0-5.37.01-8.053-.011-.388-.002-.522.132-.631.472-1.17 3.638-2.356 7.27-3.525 10.908-.093.289-.21.398-.52.394a153 153 0 0 0-3.685-.003c-.29.003-.403-.03-.294-.364 1.64-5.01 3.267-10.026 4.889-15.04.075-.233.194-.301.428-.3 4.582.01 9.16 0 13.742.02 1.609.006 2.81.92 3.258 2.403.444 1.469-.078 2.911-1.401 3.809a2108 2108 0 0 1-7.598 5.126c-.995.67-2.192.457-2.82-.477-.606-.9-.351-2.107.62-2.772 1.86-1.274 3.733-2.527 5.601-3.789q.209-.141.413-.287c-.012-.03-.02-.057-.032-.086m48.633 11.753c-.615 0-1.23-.014-1.843.007-.324.011-.406-.055-.294-.39.843-2.553 1.67-5.114 2.502-7.67.703-2.164 1.398-4.333 2.116-6.495.287-.866.907-1.37 1.825-1.451.897-.082 1.588.287 2.041 1.061.31.533.367 1.105.175 1.697-1.4 4.32-2.802 8.637-4.198 12.959-.069.212-.171.294-.397.289-.64-.014-1.282-.005-1.922-.005"/></svg>