<svg width="417" height="95" fill="none" xmlns="http://www.w3.org/2000/svg"><path d="M352.258 2.01h-80.864l-29.347 90.115h25.679l22.01-67.626h52.474l-46.413 31.42 28.709 34.292c3.668 4.466 10.208 5.263 14.993 2.073 5.582-3.668 6.698-11.483 2.392-16.587l-12.6-14.993 34.132-22.967c15.63-10.846 7.975-35.727-11.165-35.727Zm-322.818 0L.095 92.125h25.678l22.01-67.626h52.475L64.53 48.742c-5.104 3.509-6.858 10.527-3.509 15.79 3.509 5.263 10.527 6.699 15.79 3.19l44.499-29.985c15.95-10.686 8.294-35.568-10.845-35.568l-81.024-.16Z" fill="#fff"/><path d="M226.743 2.01h-80.386l-7.337 22.489h56.302l-72.411 48.965c-5.582 3.668-6.699 11.483-2.392 16.587 3.668 4.466 10.207 5.264 14.992 2.074L208.56 42.84l-16.109 49.284h25.679l22.967-70.497c3.031-9.57-4.147-19.618-14.354-19.618Z" fill="#00C7B1"/><path d="M404.25.254c-5.264 0-10.049 3.35-11.644 8.453l-27.114 83.576h25.679l24.722-76.08c2.552-7.974-3.35-15.95-11.643-15.95Z" fill="#fff"/></svg>