<svg xmlns="http://www.w3.org/2000/svg" width="99" height="23" fill="none"><path fill="#fff" d="M70.369 9.76h-4.135v8.115c0 2.646 2.825 4.906 6.318 4.906s6.549-2.286 6.549-4.905V9.76h-4.135v7.32c0 1.206-1.027 2.182-2.286 2.182-1.284 0-2.311-.976-2.311-2.208zM4.78 5.293v16.846H.493V1.826h7.73c3.364 0 6.112 2.722 6.112 6.035 0 2.825-1.977 5.187-4.648 5.804l5.958 8.474h-5.11l-4.29-6.651v-4.854h1.002c1.593 0 2.877-1.181 2.877-2.645s-1.207-2.696-2.8-2.696zM44.254 22.14V.85h-4.058v10.04c-1.079-1.052-2.44-1.643-4.006-1.643-3.339 0-6.061 2.954-6.061 6.626 0 3.647 2.722 6.626 6.06 6.626 1.593 0 3.082-.617 4.007-1.746v1.386zm-6.909-3.108c-1.643 0-2.979-1.464-2.979-3.262 0-1.797 1.336-3.261 2.98-3.261s2.978 1.464 2.978 3.261c-.025 1.798-1.36 3.262-2.979 3.262m23.962-7.935c1.104-1.028 1.797-2.414 1.797-3.93 0-1.386-.54-2.645-1.464-3.646-.976-1.053-2.67-1.695-4.982-1.695H49.75v20.313h8.937c3.416-.05 6.19-2.645 6.19-5.83-.026-2.31-.848-3.954-3.57-5.212m-3.442 7.524h-3.878V5.472h2.723c1.18 0 2.182.9 2.182 2.106a2.2 2.2 0 0 1-2.182 2.183h-1.44v3.673h2.646c1.438 0 2.516 1.18 2.516 2.619-.051 1.438-1.001 2.491-2.568 2.568"/><path fill="#fff" d="M19.237 14.358a2.466 2.466 0 0 1 4.931 0zm8.937 2.31c.026-.282.052-.564.052-.847.051-4.391-2.825-6.78-6.523-6.78S15 12.071 15 15.822s3.005 6.78 6.703 6.78c2.825 0 5.033-1.284 6.163-3.287L24.579 17.8c-.41.899-1.387 1.54-2.542 1.54-1.516 0-2.774-1.155-2.774-2.67zM85.062.85h-4.058v21.29h4.057zm6.906 0H87.91v21.29h4.058zm4.239-.129c.463 0 .848.154 1.156.488.308.308.488.719.488 1.156 0 .462-.154.847-.488 1.155-.308.334-.72.488-1.156.488a1.6 1.6 0 0 1-1.181-.488 1.63 1.63 0 0 1-.488-1.155c0-.463.154-.848.488-1.156s.72-.488 1.181-.488m1.926 1.644c0-.514-.18-.976-.565-1.362-.385-.36-.821-.565-1.36-.565s-.977.18-1.362.565a1.82 1.82 0 0 0-.565 1.362c0 .539.18.975.565 1.36s.822.566 1.361.566c.54 0 .976-.18 1.361-.565.36-.36.565-.822.565-1.361m-1.412-.411c0 .154-.077.282-.231.334a1.2 1.2 0 0 1-.36.05h-.334v-.77h.309q.308 0 .462.077a.34.34 0 0 1 .154.309m-1.284-.642v2.105h.36v-.821h.282c.205 0 .334.025.41.077.13.077.206.23.206.488v.256h.36l-.026-.025c0-.026-.026-.052-.026-.103v-.308c0-.103-.05-.206-.102-.334a.56.56 0 0 0-.36-.205.9.9 0 0 0 .308-.103c.129-.077.206-.231.206-.411 0-.257-.103-.437-.334-.54-.129-.05-.308-.076-.59-.076z"/></svg>