<svg width="99" height="23" fill="none" xmlns="http://www.w3.org/2000/svg"><path d="M70.369 9.76h-4.135v8.115c0 2.646 2.825 4.906 6.318 4.906 3.493 0 6.549-2.286 6.549-4.905V9.76h-4.135v7.32c0 1.206-1.027 2.182-2.286 2.182-1.284 0-2.311-.976-2.311-2.208V9.76ZM4.78 5.293v16.846H.493V1.826h7.73c3.364 0 6.112 2.722 6.112 6.035 0 2.825-1.977 5.187-4.648 5.804l5.958 8.474h-5.11l-4.29-6.651v-4.854h1.002c1.593 0 2.877-1.181 2.877-2.645s-1.207-2.696-2.8-2.696H4.781ZM44.254 22.14V.85h-4.058v10.04c-1.079-1.052-2.44-1.643-4.006-1.643-3.339 0-6.061 2.954-6.061 6.626 0 3.647 2.722 6.626 6.06 6.626 1.593 0 3.082-.617 4.007-1.746v1.386h4.058Zm-6.909-3.108c-1.643 0-2.979-1.464-2.979-3.262 0-1.797 1.336-3.261 2.98-3.261 1.643 0 2.978 1.464 2.978 3.261-.025 1.798-1.36 3.262-2.979 3.262Zm23.961-7.935c1.105-1.028 1.798-2.414 1.798-3.93 0-1.386-.54-2.645-1.464-3.646-.976-1.053-2.67-1.695-4.982-1.695H49.75v20.313h8.937c3.416-.05 6.19-2.645 6.19-5.83-.026-2.31-.848-3.954-3.57-5.212Zm-3.44 7.524h-3.879V5.472h2.723c1.18 0 2.182.9 2.182 2.106a2.198 2.198 0 0 1-2.182 2.183h-1.44v3.673h2.646c1.438 0 2.516 1.18 2.516 2.619-.051 1.438-1.001 2.491-2.568 2.568Z" fill="#fff"/><path d="M19.237 14.357a2.466 2.466 0 0 1 4.931 0h-4.93Zm8.937 2.312c.026-.283.052-.565.052-.848.051-4.391-2.825-6.78-6.523-6.78-3.698 0-6.703 3.03-6.703 6.78 0 3.75 3.005 6.78 6.703 6.78 2.825 0 5.033-1.284 6.163-3.287l-3.287-1.515c-.41.899-1.387 1.54-2.542 1.54-1.516 0-2.774-1.155-2.774-2.67h8.911ZM85.061.85h-4.057v21.29h4.057V.85Zm6.907 0H87.91v21.29h4.058V.85Zm4.239-.129c.463 0 .848.154 1.156.488.308.308.488.719.488 1.156 0 .462-.154.847-.488 1.155-.308.334-.72.488-1.156.488a1.59 1.59 0 0 1-1.181-.488 1.634 1.634 0 0 1-.488-1.155c0-.463.154-.848.488-1.156.334-.308.72-.488 1.181-.488Zm1.926 1.644c0-.514-.18-.976-.565-1.362-.385-.36-.821-.565-1.36-.565-.54 0-.977.18-1.362.565a1.823 1.823 0 0 0-.565 1.362c0 .539.18.975.565 1.36a1.82 1.82 0 0 0 1.361.566c.54 0 .976-.18 1.361-.565.36-.36.565-.822.565-1.361Zm-1.412-.411c0 .154-.077.282-.231.334a1.19 1.19 0 0 1-.36.05h-.334v-.77h.309c.205 0 .36.026.462.077a.336.336 0 0 1 .154.309Zm-1.284-.642v2.105h.36v-.821h.282c.205 0 .334.025.41.077.13.077.206.23.206.488v.256h.36l-.026-.025c0-.026-.026-.052-.026-.103v-.308c0-.103-.05-.206-.102-.334a.562.562 0 0 0-.36-.205.867.867 0 0 0 .308-.103c.129-.077.206-.231.206-.411 0-.257-.103-.437-.334-.54-.129-.05-.308-.076-.59-.076h-.694Z" fill="#fff"/></svg>